CalSansText-Light.ufo
<glyph name="quotesingle" format="2">
  <advance width="195.0"/>
  <unicode hex="0027"/>
  <outline>
    <contour>
      <point x="79.0" y="468.0" type="line"/>
      <point x="115.0" y="468.0" type="line"/>
      <point x="141.0" y="648.0" type="line" smooth="yes"/>
      <point x="145.0" y="675.0"/>
      <point x="136.0" y="713.0"/>
      <point x="98.0" y="713.0" type="curve" smooth="yes"/>
      <point x="60.0" y="713.0"/>
      <point x="47.0" y="686.0"/>
      <point x="53.0" y="648.0" type="curve" smooth="yes"/>
    </contour>
  </outline>
</glyph>
<glyph name="three" format="2">
  <advance width="557.0"/>
  <unicode hex="0033"/>
  <outline>
    <contour>
      <point x="262.0" y="-13.0" type="curve" smooth="yes"/>
      <point x="394.0" y="-13.0"/>
      <point x="491.0" y="69.0"/>
      <point x="491.0" y="200.0" type="curve" smooth="yes"/>
      <point x="491.0" y="282.0"/>
      <point x="436.0" y="354.0"/>
      <point x="360.0" y="373.0" type="curve"/>
      <point x="360.0" y="377.0" type="line"/>
      <point x="430.0" y="393.0"/>
      <point x="475.0" y="466.0"/>
      <point x="475.0" y="524.0" type="curve" smooth="yes"/>
      <point x="475.0" y="634.0"/>
      <point x="389.0" y="713.0"/>
      <point x="262.0" y="713.0" type="curve" smooth="yes"/>
      <point x="128.0" y="713.0"/>
      <point x="36.0" y="634.0"/>
      <point x="39.0" y="500.0" type="curve"/>
      <point x="123.0" y="500.0" type="line"/>
      <point x="120.0" y="588.0"/>
      <point x="179.0" y="639.0"/>
      <point x="263.0" y="639.0" type="curve" smooth="yes"/>
      <point x="343.0" y="639.0"/>
      <point x="390.0" y="591.0"/>
      <point x="390.0" y="515.0" type="curve" smooth="yes"/>
      <point x="390.0" y="445.0"/>
      <point x="337.0" y="398.0"/>
      <point x="241.0" y="398.0" type="curve" smooth="yes"/>
      <point x="165.0" y="398.0" type="line"/>
      <point x="165.0" y="325.0" type="line"/>
      <point x="238.0" y="326.0" type="line" smooth="yes"/>
      <point x="343.0" y="326.0"/>
      <point x="405.0" y="278.0"/>
      <point x="405.0" y="197.0" type="curve" smooth="yes"/>
      <point x="405.0" y="117.0"/>
      <point x="350.0" y="61.0"/>
      <point x="262.0" y="61.0" type="curve" smooth="yes"/>
      <point x="181.0" y="61.0"/>
      <point x="119.0" y="120.0"/>
      <point x="122.0" y="209.0" type="curve"/>
      <point x="37.0" y="209.0" type="line"/>
      <point x="34.0" y="73.0"/>
      <point x="127.0" y="-13.0"/>
    </contour>
  </outline>
</glyph>
<glyph name="G" format="2">
  <advance width="774.0"/>
  <unicode hex="0047"/>
  <anchor x="396.0" y="0.0" name="bottom"/>
  <anchor x="523.0" y="9.0" name="ogonek"/>
  <anchor x="396.0" y="700.0" name="top"/>
  <outline>
    <contour>
      <point x="396.0" y="-13.0" type="curve" smooth="yes"/>
      <point x="595.0" y="-13.0"/>
      <point x="733.0" y="126.0"/>
      <point x="733.0" y="321.0" type="curve" smooth="yes"/>
      <point x="733.0" y="338.0"/>
      <point x="732.0" y="355.0"/>
      <point x="730.0" y="367.0" type="curve"/>
      <point x="363.0" y="367.0" type="line"/>
      <point x="363.0" y="293.0" type="line"/>
      <point x="683.0" y="294.0" type="line"/>
      <point x="650.0" y="318.0" type="line"/>
      <point x="648.0" y="167.0"/>
      <point x="549.0" y="63.0"/>
      <point x="397.0" y="63.0" type="curve" smooth="yes"/>
      <point x="239.0" y="63.0"/>
      <point x="128.0" y="187.0"/>
      <point x="128.0" y="349.0" type="curve" smooth="yes"/>
      <point x="128.0" y="511.0"/>
      <point x="230.0" y="637.0"/>
      <point x="397.0" y="637.0" type="curve" smooth="yes"/>
      <point x="480.0" y="637.0"/>
      <point x="549.0" y="608.0"/>
      <point x="594.0" y="550.0" type="curve"/>
      <point x="655.0" y="603.0" type="line"/>
      <point x="588.0" y="680.0"/>
      <point x="510.0" y="713.0"/>
      <point x="396.0" y="713.0" type="curve" smooth="yes"/>
      <point x="187.0" y="713.0"/>
      <point x="41.0" y="555.0"/>
      <point x="41.0" y="349.0" type="curve" smooth="yes"/>
      <point x="41.0" y="144.0"/>
      <point x="191.0" y="-13.0"/>
    </contour>
  </outline>
</glyph>
<glyph name="K" format="2">
  <advance width="600.0"/>
  <unicode hex="004B"/>
  <anchor x="294.0" y="0.0" name="bottom"/>
  <anchor x="471.0" y="0.0" name="ogonek"/>
  <anchor x="284.0" y="701.0" name="top"/>
  <outline>
    <contour>
      <point x="82.0" y="0.0" type="line"/>
      <point x="164.0" y="0.0" type="line"/>
      <point x="164.0" y="344.0" type="line"/>
      <point x="166.0" y="344.0" type="line"/>
      <point x="471.0" y="0.0" type="line"/>
      <point x="591.0" y="0.0" type="line"/>
      <point x="249.0" y="368.0" type="line"/>
      <point x="569.0" y="700.0" type="line"/>
      <point x="452.0" y="700.0" type="line"/>
      <point x="166.0" y="382.0" type="line"/>
      <point x="164.0" y="382.0" type="line"/>
      <point x="164.0" y="700.0" type="line"/>
      <point x="82.0" y="700.0" type="line"/>
    </contour>
  </outline>
</glyph>
<glyph name="S" format="2">
  <advance width="583.0"/>
  <unicode hex="0053"/>
  <anchor x="292.0" y="0.0" name="bottom"/>
  <anchor x="381.0" y="0.0" name="ogonek"/>
  <anchor x="307.0" y="700.0" name="top"/>
  <outline>
    <contour>
      <point x="293.0" y="-13.0" type="curve" smooth="yes"/>
      <point x="424.0" y="-13.0"/>
      <point x="524.0" y="63.0"/>
      <point x="524.0" y="189.0" type="curve" smooth="yes"/>
      <point x="524.0" y="432.0"/>
      <point x="169.0" y="364.0"/>
      <point x="169.0" y="530.0" type="curve" smooth="yes"/>
      <point x="169.0" y="592.0"/>
      <point x="217.0" y="638.0"/>
      <point x="304.0" y="638.0" type="curve" smooth="yes"/>
      <point x="364.0" y="638.0"/>
      <point x="414.0" y="607.0"/>
      <point x="450.0" y="549.0" type="curve"/>
      <point x="519.0" y="594.0" type="line"/>
      <point x="474.0" y="664.0"/>
      <point x="406.0" y="713.0"/>
      <point x="305.0" y="713.0" type="curve" smooth="yes"/>
      <point x="166.0" y="713.0"/>
      <point x="85.0" y="619.0"/>
      <point x="85.0" y="525.0" type="curve" smooth="yes"/>
      <point x="85.0" y="285.0"/>
      <point x="439.0" y="357.0"/>
      <point x="439.0" y="184.0" type="curve" smooth="yes"/>
      <point x="439.0" y="102.0"/>
      <point x="372.0" y="63.0"/>
      <point x="299.0" y="63.0" type="curve" smooth="yes"/>
      <point x="220.0" y="63.0"/>
      <point x="162.0" y="98.0"/>
      <point x="117.0" y="170.0" type="curve"/>
      <point x="47.0" y="122.0" type="line"/>
      <point x="101.0" y="37.0"/>
      <point x="188.0" y="-13.0"/>
    </contour>
  </outline>
</glyph>
<glyph name="backslash" format="2">
  <advance width="469.0"/>
  <unicode hex="005C"/>
  <outline>
    <contour>
      <point x="338.0" y="-13.0" type="line"/>
      <point x="412.0" y="-13.0" type="line"/>
      <point x="138.0" y="740.0" type="line"/>
      <point x="62.0" y="740.0" type="line"/>
    </contour>
  </outline>
</glyph>
<glyph name="c" format="2">
  <advance width="515.0"/>
  <unicode hex="0063"/>
  <anchor x="292.0" y="0.0" name="bottom"/>
  <anchor x="369.0" y="0.0" name="ogonek"/>
  <anchor x="292.0" y="490.0" name="top"/>
  <outline>
    <contour>
      <point x="286.0" y="-13.0" type="curve" smooth="yes"/>
      <point x="370.0" y="-13.0"/>
      <point x="438.0" y="20.0"/>
      <point x="485.0" y="80.0" type="curve"/>
      <point x="429.0" y="128.0" type="line"/>
      <point x="395.0" y="82.0"/>
      <point x="353.0" y="61.0"/>
      <point x="290.0" y="61.0" type="curve" smooth="yes"/>
      <point x="187.0" y="61.0"/>
      <point x="116.0" y="140.0"/>
      <point x="116.0" y="245.0" type="curve" smooth="yes"/>
      <point x="116.0" y="348.0"/>
      <point x="183.0" y="428.0"/>
      <point x="286.0" y="428.0" type="curve" smooth="yes"/>
      <point x="348.0" y="428.0"/>
      <point x="389.0" y="406.0"/>
      <point x="428.0" y="359.0" type="curve"/>
      <point x="486.0" y="405.0" type="line"/>
      <point x="438.0" y="469.0"/>
      <point x="368.0" y="503.0"/>
      <point x="283.0" y="502.0" type="curve" smooth="yes"/>
      <point x="139.0" y="500.0"/>
      <point x="36.0" y="384.0"/>
      <point x="36.0" y="245.0" type="curve" smooth="yes"/>
      <point x="36.0" y="105.0"/>
      <point x="141.0" y="-13.0"/>
    </contour>
  </outline>
</glyph>
<glyph name="f" format="2">
  <advance width="386.0"/>
  <unicode hex="0066"/>
  <anchor x="155.0" y="0.0" name="bottom"/>
  <anchor x="242.0" y="740.0" name="top"/>
  <outline>
    <contour>
      <point x="117.0" y="0.0" type="line"/>
      <point x="197.0" y="0.0" type="line"/>
      <point x="197.0" y="584.0" type="line" smooth="yes"/>
      <point x="197.0" y="641.0"/>
      <point x="228.0" y="680.0"/>
      <point x="297.0" y="680.0" type="curve" smooth="yes"/>
      <point x="325.0" y="680.0"/>
      <point x="347.0" y="679.0"/>
      <point x="369.0" y="672.0" type="curve"/>
      <point x="369.0" y="743.0" type="line"/>
      <point x="337.0" y="751.0"/>
      <point x="320.0" y="753.0"/>
      <point x="285.0" y="753.0" type="curve" smooth="yes"/>
      <point x="187.0" y="753.0"/>
      <point x="117.0" y="687.0"/>
      <point x="117.0" y="589.0" type="curve" smooth="yes"/>
    </contour>
    <contour>
      <point x="17.0" y="418.0" type="line"/>
      <point x="369.0" y="418.0" type="line"/>
      <point x="369.0" y="490.0" type="line"/>
      <point x="17.0" y="490.0" type="line"/>
    </contour>
  </outline>
</glyph>
<glyph name="y" format="2">
  <advance width="509.0"/>
  <unicode hex="0079"/>
  <anchor x="405.0" y="0.0" name="bottom"/>
  <anchor x="139.0" y="-213.0" name="ogonek"/>
  <anchor x="258.0" y="490.0" name="top"/>
  <anchor x="259.0" y="429.0" name="top_hook"/>
  <outline>
    <contour>
      <point x="79.0" y="-223.0" type="curve" smooth="yes"/>
      <point x="150.0" y="-223.0"/>
      <point x="217.0" y="-202.0"/>
      <point x="271.0" y="-73.0" type="curve" smooth="yes"/>
      <point x="509.0" y="490.0" type="line"/>
      <point x="418.0" y="490.0" type="line"/>
      <point x="298.0" y="174.0" type="line" smooth="yes"/>
      <point x="287.0" y="145.0"/>
      <point x="268.0" y="95.0"/>
      <point x="260.0" y="59.0" type="curve"/>
      <point x="253.0" y="59.0" type="line"/>
      <point x="245.0" y="95.0"/>
      <point x="223.0" y="146.0"/>
      <point x="212.0" y="174.0" type="curve" smooth="yes"/>
      <point x="91.0" y="490.0" type="line"/>
      <point x="0.0" y="490.0" type="line"/>
      <point x="207.0" y="-7.0" type="line"/>
      <point x="187.0" y="-57.0" type="line" smooth="yes"/>
      <point x="157.0" y="-131.0"/>
      <point x="119.0" y="-147.0"/>
      <point x="77.0" y="-147.0" type="curve" smooth="yes"/>
      <point x="53.0" y="-147.0"/>
      <point x="35.0" y="-144.0"/>
      <point x="14.0" y="-137.0" type="curve"/>
      <point x="0.0" y="-211.0" type="line"/>
      <point x="21.0" y="-218.0"/>
      <point x="46.0" y="-223.0"/>
    </contour>
  </outline>
</glyph>
<glyph name="section" format="2">
  <advance width="522.0"/>
  <unicode hex="00A7"/>
  <outline>
    <contour>
      <point x="264.0" y="-108.0" type="curve" smooth="yes"/>
      <point x="364.0" y="-108.0"/>
      <point x="441.0" y="-50.0"/>
      <point x="441.0" y="47.0" type="curve" smooth="yes"/>
      <point x="441.0" y="97.0"/>
      <point x="420.0" y="142.0"/>
      <point x="372.0" y="168.0" type="curve"/>
      <point x="372.0" y="170.0" type="line"/>
      <point x="426.0" y="199.0"/>
      <point x="447.0" y="255.0"/>
      <point x="447.0" y="299.0" type="curve" smooth="yes"/>
      <point x="447.0" y="384.0"/>
      <point x="380.0" y="431.0"/>
      <point x="292.0" y="459.0" type="curve" smooth="yes"/>
      <point x="227.0" y="480.0"/>
      <point x="175.0" y="507.0"/>
      <point x="175.0" y="564.0" type="curve" smooth="yes"/>
      <point x="175.0" y="608.0"/>
      <point x="212.0" y="644.0"/>
      <point x="278.0" y="644.0" type="curve" smooth="yes"/>
      <point x="324.0" y="644.0"/>
      <point x="363.0" y="621.0"/>
      <point x="391.0" y="576.0" type="curve"/>
      <point x="443.0" y="610.0" type="line"/>
      <point x="409.0" y="664.0"/>
      <point x="357.0" y="701.0"/>
      <point x="279.0" y="701.0" type="curve" smooth="yes"/>
      <point x="172.0" y="701.0"/>
      <point x="110.0" y="629.0"/>
      <point x="110.0" y="557.0" type="curve" smooth="yes"/>
      <point x="110.0" y="501.0"/>
      <point x="137.0" y="459.0"/>
      <point x="191.0" y="433.0" type="curve"/>
      <point x="191.0" y="431.0" type="line"/>
      <point x="144.0" y="416.0"/>
      <point x="104.0" y="360.0"/>
      <point x="104.0" y="311.0" type="curve" smooth="yes"/>
      <point x="104.0" y="234.0"/>
      <point x="145.0" y="188.0"/>
      <point x="229.0" y="158.0" type="curve" smooth="yes"/>
      <point x="306.0" y="130.0"/>
      <point x="376.0" y="111.0"/>
      <point x="376.0" y="43.0" type="curve" smooth="yes"/>
      <point x="376.0" y="-20.0"/>
      <point x="324.0" y="-50.0"/>
      <point x="268.0" y="-50.0" type="curve" smooth="yes"/>
      <point x="208.0" y="-50.0"/>
      <point x="162.0" y="-24.0"/>
      <point x="127.0" y="31.0" type="curve"/>
      <point x="75.0" y="-4.0" type="line"/>
      <point x="117.0" y="-70.0"/>
      <point x="183.0" y="-108.0"/>
    </contour>
    <contour>
      <point x="289.0" y="203.0" type="curve" smooth="yes"/>
      <point x="220.0" y="203.0"/>
      <point x="169.0" y="241.0"/>
      <point x="169.0" y="309.0" type="curve" smooth="yes"/>
      <point x="169.0" y="363.0"/>
      <point x="216.0" y="392.0"/>
      <point x="259.0" y="392.0" type="curve" smooth="yes"/>
      <point x="324.0" y="392.0"/>
      <point x="382.0" y="356.0"/>
      <point x="382.0" y="295.0" type="curve" smooth="yes"/>
      <point x="382.0" y="238.0"/>
      <point x="334.0" y="203.0"/>
    </contour>
  </outline>
</glyph>
<glyph name="divide" format="2">
  <advance width="596.0"/>
  <unicode hex="00F7"/>
  <outline>
    <contour>
      <point x="82.0" y="280.0" type="line"/>
      <point x="514.0" y="280.0" type="line"/>
      <point x="514.0" y="352.0" type="line"/>
      <point x="82.0" y="352.0" type="line"/>
    </contour>
    <component base="tittle" xScale="0.95" yScale="0.95" xOffset="191.0" yOffset="-470.0"/>
    <component base="tittle" xScale="0.95" yScale="0.95" xOffset="193.0" yOffset="-160.0"/>
  </outline>
</glyph>
<glyph name="kgreenlandic" format="2">
  <advance width="525.0"/>
  <unicode hex="0138"/>
  <outline>
    <contour>
      <point x="72.0" y="0.0" type="line"/>
      <point x="154.0" y="0.0" type="line"/>
      <point x="154.0" y="254.0" type="line"/>
      <point x="157.0" y="254.0" type="line"/>
      <point x="387.0" y="0.0" type="line"/>
      <point x="498.0" y="0.0" type="line"/>
      <point x="246.0" y="273.0" type="line"/>
      <point x="484.0" y="490.0" type="line"/>
      <point x="368.0" y="490.0" type="line"/>
      <point x="157.0" y="284.0" type="line"/>
      <point x="154.0" y="284.0" type="line"/>
      <point x="154.0" y="490.0" type="line"/>
      <point x="72.0" y="490.0" type="line"/>
    </contour>
  </outline>
</glyph>
<glyph name="jdotless" format="2">
  <advance width="224.0"/>
  <unicode hex="0237"/>
  <anchor x="22.0" y="-233.0" name="bottom"/>
  <anchor x="36.0" y="-233.0" name="ogonek"/>
  <anchor x="112.0" y="490.0" name="top"/>
  <outline>
    <contour>
      <point x="7.0" y="-233.0" type="curve" smooth="yes"/>
      <point x="92.0" y="-233.0"/>
      <point x="152.0" y="-187.0"/>
      <point x="152.0" y="-84.0" type="curve" smooth="yes"/>
      <point x="152.0" y="490.0" type="line"/>
      <point x="72.0" y="490.0" type="line"/>
      <point x="72.0" y="-81.0" type="line" smooth="yes"/>
      <point x="72.0" y="-142.0"/>
      <point x="41.0" y="-162.0"/>
      <point x="-1.0" y="-162.0" type="curve" smooth="yes"/>
      <point x="-17.0" y="-162.0"/>
      <point x="-28.0" y="-160.0"/>
      <point x="-47.0" y="-154.0" type="curve"/>
      <point x="-60.0" y="-224.0" type="line"/>
      <point x="-36.0" y="-230.0"/>
      <point x="-15.0" y="-233.0"/>
    </contour>
  </outline>
</glyph>
<glyph name="horncomb" format="2">
  <unicode hex="031B"/>
  <anchor x="180.0" y="490.0" name="_topright"/>
  <outline>
    <contour>
      <point x="157.0" y="421.0" type="curve" smooth="yes"/>
      <point x="226.0" y="421.0"/>
      <point x="286.0" y="459.0"/>
      <point x="286.0" y="535.0" type="curve" smooth="yes"/>
      <point x="286.0" y="570.0"/>
      <point x="281.0" y="585.0"/>
      <point x="276.0" y="600.0" type="curve"/>
      <point x="204.0" y="600.0" type="line"/>
      <point x="211.0" y="583.0"/>
      <point x="216.0" y="565.0"/>
      <point x="216.0" y="545.0" type="curve" smooth="yes"/>
      <point x="216.0" y="515.0"/>
      <point x="198.0" y="488.0"/>
      <point x="140.0" y="488.0" type="curve" smooth="yes"/>
      <point x="101.0" y="488.0"/>
      <point x="70.0" y="503.0"/>
      <point x="13.0" y="503.0" type="curve"/>
      <point x="2.0" y="436.0" type="line"/>
      <point x="101.0" y="436.0"/>
      <point x="96.0" y="421.0"/>
    </contour>
  </outline>
</glyph>
<glyph name="ogonekcomb" format="2">
  <unicode hex="0328"/>
  <anchor x="0.0" y="0.0" name="_ogonek"/>
  <outline>
    <contour>
      <point x="49.0" y="-220.0" type="curve" smooth="yes"/>
      <point x="71.0" y="-220.0"/>
      <point x="96.0" y="-217.0"/>
      <point x="124.0" y="-209.0" type="curve"/>
      <point x="108.0" y="-149.0" type="line"/>
      <point x="95.0" y="-153.0"/>
      <point x="81.0" y="-155.0"/>
      <point x="65.0" y="-155.0" type="curve" smooth="yes"/>
      <point x="23.0" y="-155.0"/>
      <point x="-3.0" y="-140.0"/>
      <point x="-3.0" y="-100.0" type="curve" smooth="yes"/>
      <point x="-3.0" y="-41.0"/>
      <point x="46.0" y="-12.0"/>
      <point x="78.0" y="0.0" type="curve"/>
      <point x="63.0" y="6.0" type="line"/>
      <point x="23.0" y="17.0" type="line"/>
      <point x="0.0" y="0.0" type="line" smooth="yes"/>
      <point x="-50.0" y="-36.0"/>
      <point x="-71.0" y="-79.0"/>
      <point x="-71.0" y="-117.0" type="curve" smooth="yes"/>
      <point x="-71.0" y="-179.0"/>
      <point x="-25.0" y="-220.0"/>
    </contour>
  </outline>
</glyph>
<glyph name="strokeshortcomb" format="2">
  <unicode hex="0335"/>
  <anchor x="0.0" y="351.0" name="_bar"/>
  <outline>
    <contour>
      <point x="-150.0" y="314.0" type="line"/>
      <point x="150.0" y="314.0" type="line"/>
      <point x="150.0" y="386.0" type="line"/>
      <point x="-150.0" y="386.0" type="line"/>
    </contour>
  </outline>
</glyph>
<glyph name="fraction" format="2">
  <advance width="603.0"/>
  <unicode hex="2044"/>
  <outline>
    <contour>
      <point x="-46.0" y="0.0" type="line"/>
      <point x="32.0" y="0.0" type="line"/>
      <point x="649.0" y="700.0" type="line"/>
      <point x="571.0" y="700.0" type="line"/>
    </contour>
  </outline>
</glyph>
<glyph name="sheqel" format="2">
  <advance width="583.0"/>
  <unicode hex="20AA"/>
  <outline>
    <contour>
      <point x="238.0" y="30.0" type="line"/>
      <point x="364.0" y="30.0" type="line" smooth="yes"/>
      <point x="509.0" y="30.0"/>
      <point x="542.0" y="103.0"/>
      <point x="542.0" y="230.0" type="curve" smooth="yes"/>
      <point x="542.0" y="459.0" type="line"/>
      <point x="472.0" y="459.0" type="line"/>
      <point x="472.0" y="231.0" type="line" smooth="yes"/>
      <point x="472.0" y="145.0"/>
      <point x="441.0" y="106.0"/>
      <point x="361.0" y="106.0" type="curve" smooth="yes"/>
      <point x="238.0" y="106.0" type="line"/>
    </contour>
    <contour>
      <point x="42.0" y="30.0" type="line"/>
      <point x="112.0" y="30.0" type="line"/>
      <point x="112.0" y="460.0" type="line"/>
      <point x="42.0" y="460.0" type="line"/>
    </contour>
    <contour>
      <point x="187.0" y="30.0" type="line"/>
      <point x="257.0" y="30.0" type="line"/>
      <point x="257.0" y="319.0" type="line"/>
      <point x="187.0" y="319.0" type="line"/>
    </contour>
    <contour>
      <point x="326.0" y="170.0" type="line"/>
      <point x="397.0" y="170.0" type="line"/>
      <point x="397.0" y="260.0" type="line" smooth="yes"/>
      <point x="397.0" y="387.0"/>
      <point x="377.0" y="460.0"/>
      <point x="232.0" y="460.0" type="curve" smooth="yes"/>
      <point x="93.0" y="460.0" type="line"/>
      <point x="93.0" y="384.0" type="line"/>
      <point x="230.0" y="384.0" type="line" smooth="yes"/>
      <point x="305.0" y="384.0"/>
      <point x="326.0" y="345.0"/>
      <point x="326.0" y="259.0" type="curve" smooth="yes"/>
    </contour>
  </outline>
</glyph>
<glyph name="cedi" format="2">
  <advance width="652.0"/>
  <unicode hex="20B5"/>
  <outline>
    <contour>
      <point x="369.0" y="27.0" type="curve" smooth="yes"/>
      <point x="483.0" y="27.0"/>
      <point x="571.0" y="69.0"/>
      <point x="631.0" y="142.0" type="curve"/>
      <point x="571.0" y="191.0" type="line"/>
      <point x="520.0" y="133.0"/>
      <point x="462.0" y="103.0"/>
      <point x="372.0" y="103.0" type="curve" smooth="yes"/>
      <point x="251.0" y="103.0"/>
      <point x="128.0" y="182.0"/>
      <point x="128.0" y="349.0" type="curve" smooth="yes"/>
      <point x="128.0" y="515.0"/>
      <point x="241.0" y="597.0"/>
      <point x="369.0" y="597.0" type="curve" smooth="yes"/>
      <point x="445.0" y="597.0"/>
      <point x="513.0" y="575.0"/>
      <point x="564.0" y="511.0" type="curve"/>
      <point x="625.0" y="563.0" type="line"/>
      <point x="562.0" y="638.0"/>
      <point x="476.0" y="673.0"/>
      <point x="369.0" y="673.0" type="curve" smooth="yes"/>
      <point x="195.0" y="673.0"/>
      <point x="41.0" y="553.0"/>
      <point x="41.0" y="349.0" type="curve" smooth="yes"/>
      <point x="41.0" y="145.0"/>
      <point x="197.0" y="27.0"/>
    </contour>
    <contour>
      <point x="341.0" y="-69.0" type="line"/>
      <point x="413.0" y="-69.0" type="line"/>
      <point x="413.0" y="775.0" type="line"/>
      <point x="341.0" y="775.0" type="line"/>
    </contour>
  </outline>
</glyph>
<glyph name="summation" format="2">
  <advance width="560.0"/>
  <unicode hex="2211"/>
  <outline>
    <contour>
      <point x="138.0" y="-127.0" type="curve" smooth="yes"/>
      <point x="353.0" y="253.0" type="line"/>
      <point x="138.0" y="607.0" type="line" smooth="yes"/>
      <point x="126.0" y="626.0"/>
      <point x="120.0" y="636.0"/>
      <point x="115.0" y="639.0" type="curve"/>
      <point x="117.0" y="643.0" type="line"/>
      <point x="122.0" y="641.0"/>
      <point x="136.0" y="642.0"/>
      <point x="160.0" y="642.0" type="curve" smooth="yes"/>
      <point x="518.0" y="642.0" type="line"/>
      <point x="518.0" y="700.0" type="line"/>
      <point x="20.0" y="700.0" type="line"/>
      <point x="20.0" y="685.0" type="line"/>
      <point x="290.0" y="237.0" type="line"/>
      <point x="290.0" y="263.0" type="line"/>
      <point x="20.0" y="-205.0" type="line"/>
      <point x="20.0" y="-220.0" type="line"/>
      <point x="518.0" y="-220.0" type="line"/>
      <point x="518.0" y="-162.0" type="line"/>
      <point x="160.0" y="-162.0" type="line" smooth="yes"/>
      <point x="146.0" y="-162.0"/>
      <point x="126.0" y="-160.0"/>
      <point x="118.0" y="-163.0" type="curve"/>
      <point x="115.0" y="-159.0" type="line"/>
      <point x="125.0" y="-152.0"/>
      <point x="132.0" y="-137.0"/>
    </contour>
  </outline>
</glyph>
<glyph name="whiteBullet" format="2">
  <advance width="290.0"/>
  <unicode hex="25E6"/>
  <outline>
    <contour>
      <point x="145.0" y="277.0" type="curve" smooth="yes"/>
      <point x="197.0" y="277.0"/>
      <point x="230.0" y="315.0"/>
      <point x="230.0" y="360.0" type="curve" smooth="yes"/>
      <point x="230.0" y="406.0"/>
      <point x="197.0" y="444.0"/>
      <point x="145.0" y="444.0" type="curve" smooth="yes"/>
      <point x="93.0" y="444.0"/>
      <point x="60.0" y="406.0"/>
      <point x="60.0" y="361.0" type="curve" smooth="yes"/>
      <point x="60.0" y="315.0"/>
      <point x="93.0" y="277.0"/>
    </contour>
    <contour>
      <point x="145.0" y="320.0" type="curve" smooth="yes"/>
      <point x="122.0" y="320.0"/>
      <point x="104.0" y="337.0"/>
      <point x="104.0" y="361.0" type="curve" smooth="yes"/>
      <point x="104.0" y="382.0"/>
      <point x="121.0" y="401.0"/>
      <point x="145.0" y="401.0" type="curve" smooth="yes"/>
      <point x="168.0" y="401.0"/>
      <point x="186.0" y="384.0"/>
      <point x="186.0" y="360.0" type="curve" smooth="yes"/>
      <point x="186.0" y="339.0"/>
      <point x="169.0" y="320.0"/>
    </contour>
  </outline>
</glyph>
<glyph name="ballotBoxWithCheck" format="2">
  <advance width="890.0"/>
  <unicode hex="2611"/>
  <outline>
    <contour>
      <point x="356.0" y="156.0" type="line"/>
      <point x="396.0" y="210.0" type="line"/>
      <point x="261.0" y="355.0" type="line"/>
      <point x="213.0" y="309.0" type="line"/>
    </contour>
    <contour>
      <point x="356.0" y="156.0" type="line"/>
      <point x="681.0" y="506.0" type="line"/>
      <point x="632.0" y="552.0" type="line"/>
      <point x="317.0" y="213.0" type="line"/>
    </contour>
    <component base="whiteSquare"/>
  </outline>
</glyph>
<glyph name="heavyCheckMark" format="2">
  <advance width="600.0"/>
  <unicode hex="2714"/>
  <outline>
    <contour>
      <point x="200.0" y="182.0" type="curve" smooth="yes"/>
      <point x="223.0" y="163.0"/>
      <point x="253.0" y="151.0"/>
      <point x="288.0" y="184.0" type="curve" smooth="yes"/>
      <point x="361.0" y="251.0"/>
      <point x="472.0" y="456.0"/>
      <point x="536.0" y="578.0" type="curve" smooth="yes"/>
      <point x="545.0" y="595.0"/>
      <point x="522.0" y="604.0"/>
      <point x="512.0" y="589.0" type="curve" smooth="yes"/>
      <point x="418.0" y="444.0"/>
      <point x="321.0" y="312.0"/>
      <point x="271.0" y="254.0" type="curve" smooth="yes"/>
      <point x="257.0" y="238.0"/>
      <point x="246.0" y="241.0"/>
      <point x="228.0" y="255.0" type="curve" smooth="yes"/>
      <point x="187.0" y="287.0"/>
      <point x="152.0" y="336.0"/>
      <point x="124.0" y="377.0" type="curve" smooth="yes"/>
      <point x="109.0" y="397.0"/>
      <point x="88.0" y="394.0"/>
      <point x="77.0" y="369.0" type="curve" smooth="yes"/>
      <point x="70.0" y="352.0"/>
      <point x="70.0" y="327.0"/>
      <point x="78.0" y="315.0" type="curve" smooth="yes"/>
      <point x="103.0" y="271.0"/>
      <point x="153.0" y="221.0"/>
    </contour>
  </outline>
</glyph>
<glyph name="sparkles" format="2">
  <advance width="724.0"/>
  <unicode hex="2728"/>
  <outline>
    <contour>
      <point x="139.0" y="289.0" type="curve"/>
      <point x="147.0" y="452.0"/>
      <point x="157.0" y="460.0"/>
      <point x="272.0" y="463.0" type="curve"/>
      <point x="157.0" y="469.0"/>
      <point x="147.0" y="477.0"/>
      <point x="139.0" y="637.0" type="curve"/>
      <point x="131.0" y="477.0"/>
      <point x="121.0" y="469.0"/>
      <point x="6.0" y="463.0" type="curve"/>
      <point x="121.0" y="460.0"/>
      <point x="131.0" y="452.0"/>
    </contour>
    <contour>
      <point x="272.0" y="-19.0" type="curve"/>
      <point x="280.0" y="144.0"/>
      <point x="290.0" y="152.0"/>
      <point x="405.0" y="155.0" type="curve"/>
      <point x="290.0" y="161.0"/>
      <point x="280.0" y="169.0"/>
      <point x="272.0" y="329.0" type="curve"/>
      <point x="264.0" y="169.0"/>
      <point x="254.0" y="161.0"/>
      <point x="139.0" y="155.0" type="curve"/>
      <point x="254.0" y="152.0"/>
      <point x="264.0" y="144.0"/>
    </contour>
    <contour>
      <point x="473.0" y="68.0" type="curve"/>
      <point x="495.0" y="351.0"/>
      <point x="523.0" y="374.0"/>
      <point x="718.0" y="384.0" type="curve"/>
      <point x="523.0" y="399.0"/>
      <point x="495.0" y="420.0"/>
      <point x="473.0" y="700.0" type="curve"/>
      <point x="451.0" y="420.0"/>
      <point x="423.0" y="399.0"/>
      <point x="228.0" y="384.0" type="curve"/>
      <point x="423.0" y="374.0"/>
      <point x="451.0" y="351.0"/>
    </contour>
  </outline>
</glyph>
<glyph name="whiteSmallStar" format="2">
  <advance width="480.0"/>
  <unicode hex="2B52"/>
  <outline>
    <contour>
      <point x="116.0" y="199.0" type="line"/>
      <point x="239.0" y="289.0" type="line"/>
      <point x="363.0" y="199.0" type="line"/>
      <point x="316.0" y="344.0" type="line"/>
      <point x="440.0" y="434.0" type="line"/>
      <point x="287.0" y="434.0" type="line"/>
      <point x="239.0" y="579.0" type="line"/>
      <point x="192.0" y="434.0" type="line"/>
      <point x="40.0" y="434.0" type="line"/>
      <point x="163.0" y="344.0" type="line"/>
    </contour>
    <contour>
      <point x="166.0" y="269.0" type="line"/>
      <point x="194.0" y="356.0" type="line"/>
      <point x="120.0" y="410.0" type="line"/>
      <point x="211.0" y="410.0" type="line"/>
      <point x="239.0" y="497.0" type="line"/>
      <point x="268.0" y="410.0" type="line"/>
      <point x="359.0" y="410.0" type="line"/>
      <point x="285.0" y="356.0" type="line"/>
      <point x="313.0" y="269.0" type="line"/>
      <point x="239.0" y="323.0" type="line"/>
    </contour>
  </outline>
</glyph>
<glyph name="ast" format="2">
  <advance width="140.0"/>
  <outline>
    <contour>
      <point x="69.0" y="535.0" type="line"/>
      <point x="90.0" y="545.0" type="line"/>
      <point x="103.0" y="697.0" type="line"/>
      <point x="35.0" y="697.0" type="line"/>
      <point x="48.0" y="545.0" type="line"/>
    </contour>
  </outline>
</glyph>
<glyph name="c.ss10" format="2">
  <advance width="423.0"/>
  <anchor x="276.0" y="0.0" name="bottom"/>
  <anchor x="369.0" y="0.0" name="ogonek"/>
  <anchor x="276.0" y="490.0" name="top"/>
  <outline>
    <contour>
      <point x="299.0" y="-13.0" type="curve" smooth="yes"/>
      <point x="322.0" y="-13.0"/>
      <point x="353.0" y="-7.0"/>
      <point x="396.0" y="8.0" type="curve"/>
      <point x="403.0" y="93.0" type="line"/>
      <point x="361.0" y="71.0"/>
      <point x="331.0" y="65.0"/>
      <point x="303.0" y="65.0" type="curve" smooth="yes"/>
      <point x="188.0" y="65.0"/>
      <point x="116.0" y="140.0"/>
      <point x="116.0" y="245.0" type="curve" smooth="yes"/>
      <point x="116.0" y="348.0"/>
      <point x="184.0" y="424.0"/>
      <point x="299.0" y="424.0" type="curve" smooth="yes"/>
      <point x="336.0" y="424.0"/>
      <point x="361.0" y="421.0"/>
      <point x="401.0" y="401.0" type="curve"/>
      <point x="401.0" y="485.0" type="line"/>
      <point x="377.0" y="493.0"/>
      <point x="341.0" y="503.0"/>
      <point x="296.0" y="503.0" type="curve" smooth="yes"/>
      <point x="140.0" y="503.0"/>
      <point x="36.0" y="384.0"/>
      <point x="36.0" y="245.0" type="curve" smooth="yes"/>
      <point x="36.0" y="105.0"/>
      <point x="142.0" y="-13.0"/>
    </contour>
  </outline>
</glyph>
<glyph name="eight.numr" format="2">
  <advance width="316.0"/>
  <outline>
    <contour>
      <point x="158.0" y="308.0" type="curve" smooth="yes"/>
      <point x="227.0" y="308.0"/>
      <point x="283.0" y="353.0"/>
      <point x="283.0" y="422.0" type="curve" smooth="yes"/>
      <point x="283.0" y="472.0"/>
      <point x="251.0" y="503.0"/>
      <point x="221.0" y="514.0" type="curve"/>
      <point x="221.0" y="516.0" type="line"/>
      <point x="254.0" y="530.0"/>
      <point x="273.0" y="566.0"/>
      <point x="273.0" y="601.0" type="curve" smooth="yes"/>
      <point x="273.0" y="664.0"/>
      <point x="229.0" y="706.0"/>
      <point x="158.0" y="706.0" type="curve" smooth="yes"/>
      <point x="78.0" y="706.0"/>
      <point x="42.0" y="656.0"/>
      <point x="42.0" y="598.0" type="curve" smooth="yes"/>
      <point x="42.0" y="564.0"/>
      <point x="63.0" y="530.0"/>
      <point x="96.0" y="516.0" type="curve"/>
      <point x="96.0" y="514.0" type="line"/>
      <point x="65.0" y="502.0"/>
      <point x="33.0" y="471.0"/>
      <point x="33.0" y="421.0" type="curve" smooth="yes"/>
      <point x="33.0" y="347.0"/>
      <point x="90.0" y="308.0"/>
    </contour>
    <contour>
      <point x="158.0" y="356.0" type="curve" smooth="yes"/>
      <point x="117.0" y="356.0"/>
      <point x="87.0" y="386.0"/>
      <point x="87.0" y="424.0" type="curve" smooth="yes"/>
      <point x="87.0" y="464.0"/>
      <point x="118.0" y="490.0"/>
      <point x="158.0" y="490.0" type="curve" smooth="yes"/>
      <point x="204.0" y="490.0"/>
      <point x="228.0" y="461.0"/>
      <point x="228.0" y="423.0" type="curve" smooth="yes"/>
      <point x="228.0" y="383.0"/>
      <point x="197.0" y="356.0"/>
    </contour>
    <contour>
      <point x="159.0" y="537.0" type="curve" smooth="yes"/>
      <point x="122.0" y="537.0"/>
      <point x="96.0" y="568.0"/>
      <point x="96.0" y="598.0" type="curve" smooth="yes"/>
      <point x="96.0" y="635.0"/>
      <point x="123.0" y="658.0"/>
      <point x="158.0" y="658.0" type="curve" smooth="yes"/>
      <point x="190.0" y="658.0"/>
      <point x="219.0" y="636.0"/>
      <point x="219.0" y="597.0" type="curve" smooth="yes"/>
      <point x="219.0" y="562.0"/>
      <point x="200.0" y="537.0"/>
    </contour>
  </outline>
</glyph>
<glyph name="euro.ss10" format="2">
  <advance width="565.0"/>
  <outline>
    <contour>
      <point x="369.0" y="27.0" type="curve" smooth="yes"/>
      <point x="428.0" y="27.0"/>
      <point x="479.0" y="38.0"/>
      <point x="524.0" y="59.0" type="curve"/>
      <point x="530.0" y="152.0" type="line"/>
      <point x="488.0" y="119.0"/>
      <point x="439.0" y="103.0"/>
      <point x="372.0" y="103.0" type="curve" smooth="yes"/>
      <point x="268.0" y="103.0"/>
      <point x="173.0" y="143.0"/>
      <point x="140.0" y="264.0" type="curve"/>
      <point x="133.0" y="282.0" type="line"/>
      <point x="123.0" y="324.0"/>
      <point x="124.0" y="376.0"/>
      <point x="134.0" y="422.0" type="curve"/>
      <point x="140.0" y="440.0" type="line"/>
      <point x="173.0" y="558.0"/>
      <point x="262.0" y="597.0"/>
      <point x="369.0" y="597.0" type="curve" smooth="yes"/>
      <point x="431.0" y="597.0"/>
      <point x="487.0" y="582.0"/>
      <point x="534.0" y="542.0" type="curve"/>
      <point x="534.0" y="634.0" type="line"/>
      <point x="486.0" y="661.0"/>
      <point x="431.0" y="673.0"/>
      <point x="369.0" y="673.0" type="curve" smooth="yes"/>
      <point x="185.0" y="673.0"/>
      <point x="41.0" y="553.0"/>
      <point x="41.0" y="349.0" type="curve" smooth="yes"/>
      <point x="41.0" y="145.0"/>
      <point x="187.0" y="27.0"/>
    </contour>
    <contour>
      <point x="90.0" y="236.0" type="line"/>
      <point x="453.0" y="236.0" type="line"/>
      <point x="453.0" y="308.0" type="line"/>
      <point x="90.0" y="308.0" type="line"/>
    </contour>
    <contour>
      <point x="90.0" y="391.0" type="line"/>
      <point x="453.0" y="391.0" type="line"/>
      <point x="453.0" y="463.0" type="line"/>
      <point x="90.0" y="463.0" type="line"/>
    </contour>
  </outline>
</glyph>
<glyph name="guarani.tf.ss02" format="2">
  <advance width="596.0"/>
  <anchor x="320.0" y="653.0" name="_TopCurrency"/>
  <outline>
    <contour>
      <point x="326.0" y="31.0" type="curve" smooth="yes"/>
      <point x="428.0" y="31.0"/>
      <point x="512.0" y="69.0"/>
      <point x="578.0" y="133.0" type="curve"/>
      <point x="578.0" y="371.0" type="line"/>
      <point x="290.0" y="371.0" type="line"/>
      <point x="290.0" y="303.0" type="line"/>
      <point x="537.0" y="303.0" type="line"/>
      <point x="502.0" y="326.0" type="line"/>
      <point x="502.0" y="118.0" type="line"/>
      <point x="524.0" y="182.0" type="line"/>
      <point x="466.0" y="129.0"/>
      <point x="410.0" y="101.0"/>
      <point x="327.0" y="101.0" type="curve" smooth="yes"/>
      <point x="191.0" y="101.0"/>
      <point x="95.0" y="215.0"/>
      <point x="95.0" y="354.0" type="curve" smooth="yes"/>
      <point x="95.0" y="493.0"/>
      <point x="182.0" y="609.0"/>
      <point x="321.0" y="609.0" type="curve" smooth="yes"/>
      <point x="398.0" y="609.0"/>
      <point x="437.0" y="590.0"/>
      <point x="480.0" y="529.0" type="curve"/>
      <point x="540.0" y="575.0" type="line"/>
      <point x="477.0" y="654.0"/>
      <point x="423.0" y="679.0"/>
      <point x="320.0" y="679.0" type="curve" smooth="yes"/>
      <point x="141.0" y="679.0"/>
      <point x="13.0" y="534.0"/>
      <point x="13.0" y="354.0" type="curve" smooth="yes"/>
      <point x="13.0" y="175.0"/>
      <point x="145.0" y="31.0"/>
    </contour>
    <component base="verticalTopCurrencycomb" xOffset="320.0"/>
    <component base="verticalBottomCurrencycomb" xOffset="320.0"/>
  </outline>
</glyph>
<glyph name="hookabovecomb.case" format="2">
  <anchor x="0.0" y="700.0" name="_top"/>
  <anchor x="0.0" y="872.0" name="top"/>
  <outline>
    <contour>
      <point x="-34.0" y="735.0" type="curve"/>
      <point x="35.0" y="735.0" type="line"/>
      <point x="46.0" y="743.0"/>
      <point x="67.0" y="767.0"/>
      <point x="67.0" y="800.0" type="curve" smooth="yes"/>
      <point x="67.0" y="853.0"/>
      <point x="27.0" y="892.0"/>
      <point x="-35.0" y="892.0" type="curve" smooth="yes"/>
      <point x="-75.0" y="892.0"/>
      <point x="-99.0" y="876.0"/>
      <point x="-112.0" y="867.0" type="curve"/>
      <point x="-81.0" y="822.0" type="line"/>
      <point x="-72.0" y="831.0"/>
      <point x="-56.0" y="837.0"/>
      <point x="-38.0" y="837.0" type="curve" smooth="yes"/>
      <point x="-11.0" y="837.0"/>
      <point x="8.0" y="822.0"/>
      <point x="8.0" y="795.0" type="curve" smooth="yes"/>
      <point x="8.0" y="775.0"/>
      <point x="-5.0" y="755.0"/>
    </contour>
  </outline>
</glyph>
<glyph name="hookabovecombviet.case" format="2">
  <advance width="300.0"/>
  <anchor x="0.0" y="700.0" name="_top"/>
  <anchor x="0.0" y="859.0" name="top"/>
  <outline>
    <contour>
      <point x="0.0" y="711.0" type="line"/>
      <point x="27.0" y="730.0"/>
      <point x="50.0" y="755.0"/>
      <point x="50.0" y="786.0" type="curve" smooth="yes"/>
      <point x="50.0" y="829.0"/>
      <point x="15.0" y="871.0"/>
      <point x="-48.0" y="871.0" type="curve" smooth="yes"/>
      <point x="-78.0" y="871.0"/>
      <point x="-99.0" y="865.0"/>
      <point x="-121.0" y="851.0" type="curve"/>
      <point x="-96.0" y="801.0" type="line"/>
      <point x="-84.0" y="809.0"/>
      <point x="-67.0" y="814.0"/>
      <point x="-51.0" y="814.0" type="curve" smooth="yes"/>
      <point x="-31.0" y="814.0"/>
      <point x="-12.0" y="801.0"/>
      <point x="-12.0" y="782.0" type="curve" smooth="yes"/>
      <point x="-12.0" y="767.0"/>
      <point x="-22.0" y="756.0"/>
      <point x="-36.0" y="749.0" type="curve"/>
    </contour>
  </outline>
</glyph>
<glyph name="horn.alt_case" format="2">
  <advance width="419.0"/>
  <anchor x="158.0" y="700.0" name="_topright"/>
  <outline>
    <contour>
      <point x="130.0" y="633.0" type="line"/>
      <point x="229.0" y="625.0"/>
      <point x="289.0" y="669.0"/>
      <point x="289.0" y="745.0" type="curve" smooth="yes"/>
      <point x="289.0" y="780.0"/>
      <point x="284.0" y="795.0"/>
      <point x="279.0" y="810.0" type="curve"/>
      <point x="203.0" y="810.0" type="line"/>
      <point x="210.0" y="793.0"/>
      <point x="215.0" y="775.0"/>
      <point x="215.0" y="755.0" type="curve" smooth="yes"/>
      <point x="215.0" y="725.0"/>
      <point x="197.0" y="700.0"/>
      <point x="143.0" y="700.0" type="curve"/>
    </contour>
  </outline>
</glyph>
<glyph name="one.lf" format="2">
  <advance width="268.0"/>
  <outline>
    <contour>
      <point x="99.0" y="0.0" type="line"/>
      <point x="183.0" y="0.0" type="line"/>
      <point x="183.0" y="713.0" type="line"/>
      <point x="-17.0" y="633.0" type="line"/>
      <point x="11.0" y="561.0" type="line"/>
      <point x="97.0" y="597.0" type="line"/>
      <point x="99.0" y="594.0" type="line"/>
    </contour>
  </outline>
</glyph>
<glyph name="pi.ss10" format="2">
  <advance width="597.0"/>
  <outline>
    <contour>
      <point x="132.0" y="0.0" type="line"/>
      <point x="212.0" y="0.0" type="line"/>
      <point x="212.0" y="418.0" type="line"/>
      <point x="380.0" y="418.0" type="line"/>
      <point x="380.0" y="0.0" type="line"/>
      <point x="460.0" y="0.0" type="line"/>
      <point x="460.0" y="418.0" type="line"/>
      <point x="580.0" y="418.0" type="line"/>
      <point x="580.0" y="490.0" type="line"/>
      <point x="17.0" y="490.0" type="line"/>
      <point x="17.0" y="418.0" type="line"/>
      <point x="132.0" y="418.0" type="line"/>
    </contour>
  </outline>
</glyph>
<glyph name="zero.ss10.numr" format="2">
  <advance width="341.0"/>
  <outline>
    <contour>
      <point x="172.0" y="308.0" type="curve" smooth="yes"/>
      <point x="251.0" y="308.0"/>
      <point x="308.0" y="376.0"/>
      <point x="308.0" y="507.0" type="curve" smooth="yes"/>
      <point x="308.0" y="635.0"/>
      <point x="255.0" y="706.0"/>
      <point x="172.0" y="706.0" type="curve" smooth="yes"/>
      <point x="87.0" y="706.0"/>
      <point x="33.0" y="636.0"/>
      <point x="33.0" y="507.0" type="curve" smooth="yes"/>
      <point x="33.0" y="375.0"/>
      <point x="91.0" y="308.0"/>
    </contour>
    <contour>
      <point x="172.0" y="358.0" type="curve" smooth="yes"/>
      <point x="131.0" y="358.0"/>
      <point x="91.0" y="398.0"/>
      <point x="91.0" y="507.0" type="curve" smooth="yes"/>
      <point x="91.0" y="622.0"/>
      <point x="131.0" y="656.0"/>
      <point x="172.0" y="656.0" type="curve" smooth="yes"/>
      <point x="211.0" y="656.0"/>
      <point x="251.0" y="622.0"/>
      <point x="251.0" y="507.0" type="curve" smooth="yes"/>
      <point x="251.0" y="398.0"/>
      <point x="211.0" y="358.0"/>
    </contour>
  </outline>
</glyph>
